<mxfile host="app.diagrams.net" agent="Mozilla/5.0 (Windows NT 10.0; Win64; x64) AppleWebKit/537.36 (KHTML, like Gecko) Chrome/134.0.0.0 Safari/537.36" version="26.1.2">
  <diagram name="第 1 页" id="hIdMtHBYHyFXfAWS2m7Y">
    <mxGraphModel dx="2901" dy="1098" grid="1" gridSize="10" guides="1" tooltips="1" connect="1" arrows="1" fold="1" page="1" pageScale="1" pageWidth="827" pageHeight="1169" math="0" shadow="0">
      <root>
        <mxCell id="0" />
        <mxCell id="1" parent="0" />
        <mxCell id="OMcnlwZK2VMLgtPdIXxh-50" value="" style="rounded=1;whiteSpace=wrap;fillColor=#f5f5f5;dashed=1;dashPattern=8 8;fontColor=#333333;strokeColor=#666666;fontSize=16;" vertex="1" parent="1">
          <mxGeometry x="605" y="310" width="375" height="490" as="geometry" />
        </mxCell>
        <mxCell id="OMcnlwZK2VMLgtPdIXxh-49" value="" style="rounded=1;whiteSpace=wrap;fillColor=#f5f5f5;dashed=1;dashPattern=8 8;fontColor=#333333;strokeColor=#666666;fontSize=16;" vertex="1" parent="1">
          <mxGeometry x="200" y="310" width="380" height="490" as="geometry" />
        </mxCell>
        <mxCell id="OMcnlwZK2VMLgtPdIXxh-48" value="" style="rounded=1;whiteSpace=wrap;fillColor=#f5f5f5;dashed=1;dashPattern=8 8;strokeColor=#666666;fontColor=#333333;fontSize=16;" vertex="1" parent="1">
          <mxGeometry x="-230" y="310" width="410" height="490" as="geometry" />
        </mxCell>
        <mxCell id="OMcnlwZK2VMLgtPdIXxh-31" value="" style="rounded=0;orthogonalLoop=1;jettySize=auto;exitX=0.5;exitY=1;exitDx=0;exitDy=0;entryX=0.5;entryY=0;entryDx=0;entryDy=0;fontSize=16;" edge="1" parent="1" source="OMcnlwZK2VMLgtPdIXxh-1" target="OMcnlwZK2VMLgtPdIXxh-6">
          <mxGeometry relative="1" as="geometry" />
        </mxCell>
        <mxCell id="OMcnlwZK2VMLgtPdIXxh-32" value="" style="rounded=0;orthogonalLoop=1;jettySize=auto;exitX=0.5;exitY=1;exitDx=0;exitDy=0;entryX=0.5;entryY=0;entryDx=0;entryDy=0;fontSize=16;" edge="1" parent="1" source="OMcnlwZK2VMLgtPdIXxh-1" target="OMcnlwZK2VMLgtPdIXxh-7">
          <mxGeometry relative="1" as="geometry" />
        </mxCell>
        <mxCell id="OMcnlwZK2VMLgtPdIXxh-33" value="" style="rounded=0;orthogonalLoop=1;jettySize=auto;exitX=0.5;exitY=1;exitDx=0;exitDy=0;entryX=0.5;entryY=0;entryDx=0;entryDy=0;fontSize=16;" edge="1" parent="1" source="OMcnlwZK2VMLgtPdIXxh-1" target="OMcnlwZK2VMLgtPdIXxh-8">
          <mxGeometry relative="1" as="geometry" />
        </mxCell>
        <mxCell id="OMcnlwZK2VMLgtPdIXxh-1" value="基于扩散概率模型的空气质量预测和异常检测&#xa;方法研究" style="rounded=0;whiteSpace=wrap;fillColor=#f5f5f5;fontColor=#333333;strokeColor=#666666;fontSize=16;" vertex="1" parent="1">
          <mxGeometry x="200" y="60" width="360" height="60" as="geometry" />
        </mxCell>
        <mxCell id="OMcnlwZK2VMLgtPdIXxh-3" value="基于扩散和生成对抗框架的多变量空气质量数据修复" style="rounded=0;whiteSpace=wrap;fontSize=16;fillColor=#dae8fc;strokeColor=#6c8ebf;" vertex="1" parent="1">
          <mxGeometry x="-192" y="330" width="334" height="60" as="geometry" />
        </mxCell>
        <mxCell id="OMcnlwZK2VMLgtPdIXxh-4" value="基于扩散和门控条件信息的空气质量&#xa;数据预测" style="rounded=0;whiteSpace=wrap;fillColor=#d5e8d4;strokeColor=#82b366;fontSize=16;" vertex="1" parent="1">
          <mxGeometry x="240" y="330" width="290" height="60" as="geometry" />
        </mxCell>
        <mxCell id="OMcnlwZK2VMLgtPdIXxh-5" value="基于时序分解和扩散重构的空气质量&#xa;数据异常检测" style="rounded=0;whiteSpace=wrap;fillColor=#ffe6cc;strokeColor=#d79b00;fontSize=16;" vertex="1" parent="1">
          <mxGeometry x="640" y="330" width="310" height="60" as="geometry" />
        </mxCell>
        <mxCell id="OMcnlwZK2VMLgtPdIXxh-6" value="空气质量数据修复研究" style="rounded=0;whiteSpace=wrap;strokeColor=#6c8ebf;align=center;verticalAlign=middle;fontFamily=Helvetica;fontSize=16;fillColor=#dae8fc;" vertex="1" parent="1">
          <mxGeometry x="-120" y="220" width="190" height="60" as="geometry" />
        </mxCell>
        <mxCell id="OMcnlwZK2VMLgtPdIXxh-35" value="" style="rounded=0;orthogonalLoop=1;jettySize=auto;exitX=0.5;exitY=1;exitDx=0;exitDy=0;entryX=0.5;entryY=0;entryDx=0;entryDy=0;fontSize=16;" edge="1" parent="1" source="OMcnlwZK2VMLgtPdIXxh-7" target="OMcnlwZK2VMLgtPdIXxh-49">
          <mxGeometry relative="1" as="geometry" />
        </mxCell>
        <mxCell id="OMcnlwZK2VMLgtPdIXxh-7" value="空气质量数据预测研究" style="rounded=0;whiteSpace=wrap;fillColor=#d5e8d4;strokeColor=#82b366;fontSize=16;" vertex="1" parent="1">
          <mxGeometry x="295" y="220" width="190" height="60" as="geometry" />
        </mxCell>
        <mxCell id="OMcnlwZK2VMLgtPdIXxh-36" value="" style="rounded=0;orthogonalLoop=1;jettySize=auto;exitX=0.5;exitY=1;exitDx=0;exitDy=0;entryX=0.5;entryY=0;entryDx=0;entryDy=0;fontSize=16;" edge="1" parent="1" source="OMcnlwZK2VMLgtPdIXxh-8" target="OMcnlwZK2VMLgtPdIXxh-50">
          <mxGeometry relative="1" as="geometry" />
        </mxCell>
        <mxCell id="OMcnlwZK2VMLgtPdIXxh-8" value="空气质量数据异常检测研究" style="rounded=0;whiteSpace=wrap;fillColor=#ffe6cc;strokeColor=#d79b00;fontSize=16;" vertex="1" parent="1">
          <mxGeometry x="691.25" y="220" width="202.5" height="60" as="geometry" />
        </mxCell>
        <mxCell id="OMcnlwZK2VMLgtPdIXxh-37" value="" style="rounded=0;orthogonalLoop=1;jettySize=auto;exitX=0.5;exitY=1;exitDx=0;exitDy=0;entryX=0.5;entryY=0;entryDx=0;entryDy=0;fontSize=16;" edge="1" parent="1" source="OMcnlwZK2VMLgtPdIXxh-9" target="OMcnlwZK2VMLgtPdIXxh-13">
          <mxGeometry relative="1" as="geometry" />
        </mxCell>
        <mxCell id="OMcnlwZK2VMLgtPdIXxh-9" value="多周期时间&#xa;特征提取模块" style="rounded=0;whiteSpace=wrap;strokeColor=#d6b656;align=center;verticalAlign=middle;fontFamily=Helvetica;fontSize=16;fillColor=#fff2cc;" vertex="1" parent="1">
          <mxGeometry x="-210" y="420" width="150" height="60" as="geometry" />
        </mxCell>
        <mxCell id="OMcnlwZK2VMLgtPdIXxh-39" value="" style="rounded=0;orthogonalLoop=1;jettySize=auto;exitX=0.5;exitY=1;exitDx=0;exitDy=0;entryX=0.5;entryY=0;entryDx=0;entryDy=0;fontSize=16;" edge="1" parent="1" source="OMcnlwZK2VMLgtPdIXxh-10" target="OMcnlwZK2VMLgtPdIXxh-14">
          <mxGeometry relative="1" as="geometry" />
        </mxCell>
        <mxCell id="OMcnlwZK2VMLgtPdIXxh-10" value="传感器指标&#xa;特征提取模块" style="rounded=0;whiteSpace=wrap;fontSize=16;fillColor=#fff2cc;strokeColor=#d6b656;" vertex="1" parent="1">
          <mxGeometry y="420" width="160" height="60" as="geometry" />
        </mxCell>
        <mxCell id="OMcnlwZK2VMLgtPdIXxh-38" value="" style="rounded=0;orthogonalLoop=1;jettySize=auto;exitX=0.5;exitY=1;exitDx=0;exitDy=0;entryX=0.5;entryY=0;entryDx=0;entryDy=0;fontSize=16;" edge="1" parent="1" source="OMcnlwZK2VMLgtPdIXxh-11" target="OMcnlwZK2VMLgtPdIXxh-15">
          <mxGeometry relative="1" as="geometry" />
        </mxCell>
        <mxCell id="OMcnlwZK2VMLgtPdIXxh-11" value="鉴别器模块" style="rounded=0;whiteSpace=wrap;fillColor=#fff2cc;strokeColor=#d6b656;fontSize=16;" vertex="1" parent="1">
          <mxGeometry x="-195" y="600" width="120" height="60" as="geometry" />
        </mxCell>
        <mxCell id="OMcnlwZK2VMLgtPdIXxh-40" value="" style="rounded=0;orthogonalLoop=1;jettySize=auto;exitX=0.5;exitY=1;exitDx=0;exitDy=0;entryX=0.5;entryY=0;entryDx=0;entryDy=0;fontSize=16;" edge="1" parent="1" source="OMcnlwZK2VMLgtPdIXxh-12" target="OMcnlwZK2VMLgtPdIXxh-16">
          <mxGeometry relative="1" as="geometry" />
        </mxCell>
        <mxCell id="OMcnlwZK2VMLgtPdIXxh-12" value="正余弦函数&#xa;编码模块" style="rounded=0;whiteSpace=wrap;fontSize=16;fillColor=#fff2cc;strokeColor=#d6b656;" vertex="1" parent="1">
          <mxGeometry x="20" y="600" width="120" height="60" as="geometry" />
        </mxCell>
        <mxCell id="OMcnlwZK2VMLgtPdIXxh-13" value="提取多尺度时间维度特征" style="rounded=0;whiteSpace=wrap;fontSize=16;" vertex="1" parent="1">
          <mxGeometry x="-210" y="520" width="150" height="60" as="geometry" />
        </mxCell>
        <mxCell id="OMcnlwZK2VMLgtPdIXxh-14" value="提取传感器和指标维度特征" style="rounded=0;whiteSpace=wrap;fontSize=16;" vertex="1" parent="1">
          <mxGeometry x="5" y="520" width="150" height="60" as="geometry" />
        </mxCell>
        <mxCell id="OMcnlwZK2VMLgtPdIXxh-15" value="提高样本生成质量" style="rounded=0;whiteSpace=wrap;fontSize=16;" vertex="1" parent="1">
          <mxGeometry x="-210" y="695" width="150" height="60" as="geometry" />
        </mxCell>
        <mxCell id="OMcnlwZK2VMLgtPdIXxh-16" value="指导条件去噪&#xa;生成过程" style="rounded=0;fontSize=16;whiteSpace=wrap;" vertex="1" parent="1">
          <mxGeometry x="6.5" y="695" width="147" height="55" as="geometry" />
        </mxCell>
        <mxCell id="OMcnlwZK2VMLgtPdIXxh-41" value="" style="rounded=0;orthogonalLoop=1;jettySize=auto;exitX=0.5;exitY=1;exitDx=0;exitDy=0;entryX=0.5;entryY=0;entryDx=0;entryDy=0;fontSize=16;" edge="1" parent="1" source="OMcnlwZK2VMLgtPdIXxh-17" target="OMcnlwZK2VMLgtPdIXxh-21">
          <mxGeometry relative="1" as="geometry" />
        </mxCell>
        <mxCell id="OMcnlwZK2VMLgtPdIXxh-17" value="时空条件信息模块" style="rounded=0;whiteSpace=wrap;fillColor=#fff2cc;strokeColor=#d6b656;fontSize=16;" vertex="1" parent="1">
          <mxGeometry x="220" y="420" width="150" height="60" as="geometry" />
        </mxCell>
        <mxCell id="OMcnlwZK2VMLgtPdIXxh-43" value="" style="rounded=0;orthogonalLoop=1;jettySize=auto;exitX=0.5;exitY=1;exitDx=0;exitDy=0;entryX=0.5;entryY=0;entryDx=0;entryDy=0;fontSize=16;" edge="1" parent="1" source="OMcnlwZK2VMLgtPdIXxh-18" target="OMcnlwZK2VMLgtPdIXxh-22">
          <mxGeometry relative="1" as="geometry" />
        </mxCell>
        <mxCell id="OMcnlwZK2VMLgtPdIXxh-18" value="特征压缩提取和条件信息门控模块" style="rounded=0;whiteSpace=wrap;fillColor=#fff2cc;strokeColor=#d6b656;fontSize=16;" vertex="1" parent="1">
          <mxGeometry x="410" y="420" width="150" height="60" as="geometry" />
        </mxCell>
        <mxCell id="OMcnlwZK2VMLgtPdIXxh-44" value="" style="rounded=0;orthogonalLoop=1;jettySize=auto;exitX=0.5;exitY=1;exitDx=0;exitDy=0;entryX=0.5;entryY=0;entryDx=0;entryDy=0;fontSize=16;" edge="1" parent="1" source="OMcnlwZK2VMLgtPdIXxh-20" target="OMcnlwZK2VMLgtPdIXxh-23">
          <mxGeometry relative="1" as="geometry" />
        </mxCell>
        <mxCell id="OMcnlwZK2VMLgtPdIXxh-20" value="损失函数构建模块" style="rounded=0;whiteSpace=wrap;fillColor=#fff2cc;strokeColor=#d6b656;fontSize=16;" vertex="1" parent="1">
          <mxGeometry x="315" y="610" width="150" height="60" as="geometry" />
        </mxCell>
        <mxCell id="OMcnlwZK2VMLgtPdIXxh-21" value="构建时空条件信息" style="rounded=0;whiteSpace=wrap;fontSize=16;" vertex="1" parent="1">
          <mxGeometry x="220" y="520" width="150" height="60" as="geometry" />
        </mxCell>
        <mxCell id="OMcnlwZK2VMLgtPdIXxh-22" value="提高模型计算效率" style="rounded=0;whiteSpace=wrap;fontSize=16;" vertex="1" parent="1">
          <mxGeometry x="410" y="520" width="150" height="60" as="geometry" />
        </mxCell>
        <mxCell id="OMcnlwZK2VMLgtPdIXxh-23" value="增强模型预测准确度" style="rounded=0;whiteSpace=wrap;fontSize=16;" vertex="1" parent="1">
          <mxGeometry x="315" y="700" width="150" height="60" as="geometry" />
        </mxCell>
        <mxCell id="OMcnlwZK2VMLgtPdIXxh-45" value="" style="rounded=0;orthogonalLoop=1;jettySize=auto;exitX=0.5;exitY=1;exitDx=0;exitDy=0;entryX=0.5;entryY=0;entryDx=0;entryDy=0;fontSize=16;" edge="1" parent="1" source="OMcnlwZK2VMLgtPdIXxh-24" target="OMcnlwZK2VMLgtPdIXxh-27">
          <mxGeometry relative="1" as="geometry" />
        </mxCell>
        <mxCell id="OMcnlwZK2VMLgtPdIXxh-24" value="时序分解模块" style="rounded=0;whiteSpace=wrap;fillColor=#fff2cc;strokeColor=#d6b656;fontSize=16;" vertex="1" parent="1">
          <mxGeometry x="630" y="420" width="150" height="60" as="geometry" />
        </mxCell>
        <mxCell id="OMcnlwZK2VMLgtPdIXxh-25" value="熵权法和动态阈值&#xa;异常检测模块" style="rounded=0;whiteSpace=wrap;fillColor=#fff2cc;strokeColor=#d6b656;fontSize=16;" vertex="1" parent="1">
          <mxGeometry x="697.5" y="610" width="180" height="60" as="geometry" />
        </mxCell>
        <mxCell id="OMcnlwZK2VMLgtPdIXxh-46" value="" style="rounded=0;orthogonalLoop=1;jettySize=auto;exitX=0.5;exitY=1;exitDx=0;exitDy=0;entryX=0.5;entryY=0;entryDx=0;entryDy=0;fontSize=16;" edge="1" parent="1" source="OMcnlwZK2VMLgtPdIXxh-26" target="OMcnlwZK2VMLgtPdIXxh-29">
          <mxGeometry relative="1" as="geometry" />
        </mxCell>
        <mxCell id="OMcnlwZK2VMLgtPdIXxh-26" value="重构损失修正模块" style="rounded=0;whiteSpace=wrap;fillColor=#fff2cc;strokeColor=#d6b656;fontSize=16;" vertex="1" parent="1">
          <mxGeometry x="810" y="420" width="150" height="60" as="geometry" />
        </mxCell>
        <mxCell id="OMcnlwZK2VMLgtPdIXxh-27" value="分解趋势、周期性和残差" style="rounded=0;whiteSpace=wrap;fontSize=16;" vertex="1" parent="1">
          <mxGeometry x="630" y="520" width="150" height="60" as="geometry" />
        </mxCell>
        <mxCell id="OMcnlwZK2VMLgtPdIXxh-28" value="提高异常检测准确度" style="rounded=0;whiteSpace=wrap;fontSize=16;" vertex="1" parent="1">
          <mxGeometry x="712.5" y="700" width="150" height="60" as="geometry" />
        </mxCell>
        <mxCell id="OMcnlwZK2VMLgtPdIXxh-29" value="降低变化点对重构的影响" style="rounded=0;whiteSpace=wrap;fontSize=16;" vertex="1" parent="1">
          <mxGeometry x="810" y="520" width="150" height="60" as="geometry" />
        </mxCell>
        <mxCell id="OMcnlwZK2VMLgtPdIXxh-34" value="" style="rounded=0;orthogonalLoop=1;jettySize=auto;exitX=0.5;exitY=1;exitDx=0;exitDy=0;entryX=0.5;entryY=0;entryDx=0;entryDy=0;fontSize=16;" edge="1" parent="1" source="OMcnlwZK2VMLgtPdIXxh-6" target="OMcnlwZK2VMLgtPdIXxh-48">
          <mxGeometry relative="1" as="geometry" />
        </mxCell>
        <mxCell id="OMcnlwZK2VMLgtPdIXxh-47" value="" style="rounded=0;orthogonalLoop=1;jettySize=auto;exitX=0.5;exitY=1;exitDx=0;exitDy=0;entryX=0.5;entryY=0;entryDx=0;entryDy=0;fontSize=16;" edge="1" parent="1" source="OMcnlwZK2VMLgtPdIXxh-25" target="OMcnlwZK2VMLgtPdIXxh-28">
          <mxGeometry relative="1" as="geometry" />
        </mxCell>
      </root>
    </mxGraphModel>
  </diagram>
</mxfile>
